<svg xmlns:dc="http://purl.org/dc/elements/1.1/" xmlns:cc="http://creativecommons.org/ns#" xmlns:rdf="http://www.w3.org/1999/02/22-rdf-syntax-ns#" xmlns:svg="http://www.w3.org/2000/svg" xmlns="http://www.w3.org/2000/svg" xmlns:xlink="http://www.w3.org/1999/xlink" id="svg178481" viewBox="0 0 1024 768" height="768px" width="1024px" version="1.1">
  <metadata id="metadata178487">
    <rdf:rdf>
      <cc:work rdf:about="">
        <dc:format>image/svg+xml</dc:format>
        <dc:type rdf:resource="http://purl.org/dc/dcmitype/StillImage"></dc:type>
      </cc:work>
    </rdf:rdf>
  </metadata>
  <g id="logo-group">
    <g id="logo-center" transform="translate(-1.1368683772161603e-13 0)">
      <image xlink:href="" id="icon_container" x="0" y="0" style="display: none;"></image>
      <g id="slogan" style="font-style:normal;font-weight:400;font-size:32px;line-height:1;font-family:Montserrat;font-variant-ligatures:none;text-align:center;text-anchor:middle" transform="translate(0 0)"></g>
      <g id="title" style="font-style:normal;font-weight:300;font-size:72px;line-height:1;font-family:'Montserrat Light Alt1';font-variant-ligatures:none;text-align:center;text-anchor:middle" transform="translate(0 0)">
        <path id="path178490" style="font-style:normal;font-weight:300;font-size:72px;line-height:1;font-family:'Montserrat Light Alt1';font-variant-ligatures:none;text-align:center;text-anchor:middle" d="m 422.75937,-27.216 h -32.616 v 3.24 h 32.616 z m 0,-23.184 h -32.616 v 3.312 h 32.616 z m -32.616,47.088 V 0 h 32.616 v -3.312 z" stroke-width="0" stroke-linejoin="miter" stroke-miterlimit="2" fill="#c13531" stroke="#c13531" transform="translate(0 358.84) translate(21.302554999999927 -50.43999999999999) scale(3) translate(-390.14337 50.4)"></path>
        <path id="path178492" style="font-style:normal;font-weight:300;font-size:72px;line-height:1;font-family:'Montserrat Light Alt1';font-variant-ligatures:none;text-align:center;text-anchor:middle" d="m 438.37775,-50.4 v 3.312 h 32.256 V -50.4 Z m 0,50.4 h 3.672 v -22.248 h 28.584 v -3.312 h -32.256 z" stroke-width="0" stroke-linejoin="miter" stroke-miterlimit="2" fill="#c13531" stroke="#c13531" transform="translate(0 358.84) translate(211.00569499999995 -50.43999999999999) scale(3) translate(-438.37775 50.4)"></path>
        <path id="path178494" style="font-style:normal;font-weight:300;font-size:72px;line-height:1;font-family:'Montserrat Light Alt1';font-variant-ligatures:none;text-align:center;text-anchor:middle" d="m 483.79962,-50.4 v 3.312 h 32.256 V -50.4 Z m 0,50.4 h 3.67201 v -22.248 h 28.58399 v -3.312 h -32.256 z" stroke-width="0" stroke-linejoin="miter" stroke-miterlimit="2" fill="#c13531" stroke="#c13531" transform="translate(0 358.84) translate(392.2713050000001 -50.43999999999999) scale(3) translate(-483.79962 50.4)"></path>
        <path id="path178496" style="font-style:normal;font-weight:300;font-size:72px;line-height:1;font-family:'Montserrat Light Alt1';font-variant-ligatures:none;text-align:center;text-anchor:middle" d="M 529.2215,-50.4 V 0 h 3.672 v -50.4 z" stroke-width="0" stroke-linejoin="miter" stroke-miterlimit="2" fill="#c13531" stroke="#c13531" transform="translate(0 358.84) translate(573.5369450000002 -50.43999999999999) scale(3) translate(-529.2215 50.4)"></path>
        <path id="path178498" style="font-style:normal;font-weight:300;font-size:72px;line-height:1;font-family:'Montserrat Light Alt1';font-variant-ligatures:none;text-align:center;text-anchor:middle" d="m 558.37587,-2.952 c 3.96,2.232 8.42401,3.312 13.392,3.312 3.60001,0 6.91201,-0.576 10.00801,-1.8 3.096,-1.152 5.76,-2.952 7.91999,-5.256 l -2.30399,-2.376 c -4.10401,4.032 -9.288,6.048 -15.48001,6.048 -4.248,0 -8.06399,-0.936 -11.51999,-2.88 -3.45601,-1.872 -6.192,-4.536 -8.13601,-7.92 -2.016,-3.384 -2.952,-7.2 -2.952,-11.376 0,-4.176 0.936,-7.92 2.952,-11.304 1.94401,-3.384 4.68,-6.048 8.13601,-7.992 3.456,-1.872 7.27199,-2.88 11.51999,-2.88 6.26401,0 11.448,2.016 15.48001,5.976 l 2.30399,-2.376 c -2.15999,-2.304 -4.82399,-4.032 -7.84799,-5.184 -3.096,-1.152 -6.48,-1.8 -10.08001,-1.8 -4.96799,0 -9.432,1.152 -13.392,3.312 -3.95999,2.232 -7.05599,5.256 -9.35999,9.144 -2.30401,3.888 -3.384,8.28 -3.384,13.104 0,4.896 1.07999,9.216 3.384,13.104 2.304,3.888 5.4,6.984 9.35999,9.144 z" stroke-width="0" stroke-linejoin="miter" stroke-miterlimit="2" fill="#c13531" stroke="#c13531" transform="translate(0 358.84) translate(667.7680850000002 -51.52) scale(3) translate(-545.63188 50.76)"></path>
        <path id="path178500" style="font-style:normal;font-weight:300;font-size:72px;line-height:1;font-family:'Montserrat Light Alt1';font-variant-ligatures:none;text-align:center;text-anchor:middle" d="m 619.091,-50.4 h -3.672 L 592.235,0 h 3.96 L 617.219,-46.368 638.315,0 h 3.96 z" stroke-width="0" stroke-linejoin="miter" stroke-miterlimit="2" fill="#c13531" stroke="#c13531" transform="translate(0 358.84) translate(852.5774450000001 -50.43999999999999) scale(3) translate(-592.235 50.4)"></path>
      </g>
    </g>
  </g>
</svg>